<svg width="800" height="800" viewBox="0 0 800 800" fill="none" xmlns="http://www.w3.org/2000/svg">
<path d="M533.333 350C533.333 377.613 518.41 400 500 400C481.59 400 466.667 377.613 466.667 350C466.667 322.386 481.59 300 500 300C518.41 300 533.333 322.386 533.333 350Z" fill="black"/>
<path d="M333.333 350C333.333 377.613 318.41 400 300 400C281.591 400 266.667 377.613 266.667 350C266.667 322.386 281.591 300 300 300C318.41 300 333.333 322.386 333.333 350Z" fill="black"/>
<path fill-rule="evenodd" clip-rule="evenodd" d="M400 91.6665C229.712 91.6665 91.6665 229.712 91.6665 400C91.6665 561.873 216.406 694.61 375.003 707.333C375.053 657.733 375.523 620.89 379.673 590.59C344.65 586.856 312.333 573.593 285.113 553.417C274.02 545.197 271.694 529.54 279.916 518.446C288.138 507.353 303.795 505.026 314.887 513.25C337.073 529.693 363.456 539.813 391.896 541.436C418.946 470.366 476.01 414.69 548.01 389.497C586.233 376.123 632.113 375.08 707.333 375.003C694.61 216.406 561.873 91.6665 400 91.6665ZM704.64 425.026C629.446 425.2 593.467 426.563 564.527 436.69C504.683 457.63 457.63 504.683 436.69 564.527C426.563 593.467 425.2 629.446 425.026 704.64L704.64 425.026ZM41.6665 400C41.6665 202.098 202.098 41.6665 400 41.6665C597.903 41.6665 758.333 202.098 758.333 400C758.333 412.076 757.736 424.02 756.566 435.803L755.683 444.693L444.693 755.683L435.803 756.566C424.02 757.736 412.076 758.333 400 758.333C202.098 758.333 41.6665 597.903 41.6665 400Z" fill="black"/>
</svg>
